<svg xmlns="http://www.w3.org/2000/svg" fill="none" viewBox="0 0 1024 1024"><path fill="currentColor" d="M487.839 8.324 495.241 8c24.421 1.533 49.274 17.422 70.853 28.208q4.857 2.41 9.714 4.817c8.709 4.32 17.41 8.656 26.109 12.998q8.173 4.079 16.348 8.15 28.577 14.235 57.132 28.511a20250 20250 0 0 0 53.121 26.444 16519 16519 0 0 1 45.769 22.81 7130 7130 0 0 0 27.268 13.576 4156 4156 0 0 1 25.612 12.791 1336 1336 0 0 0 9.367 4.65c20.726 10.194 40.978 21.268 51.274 43.087 4.602 15.177 4.486 31.818-2.042 46.321-10.278 17.985-27.088 28.707-44.092 39.739-11.113 7.256-21.947 14.92-32.826 22.522a8467 8467 0 0 1-56.286 38.965c-4.405 3.029-8.8 6.073-13.194 9.118a3454 3454 0 0 1-21.917 15.059 2091 2091 0 0 0-10.645 7.327c-22.396 15.004-43.397 20.443-70.332 16.34-13.627-3.404-25.626-10.254-37.863-16.948-12.376-6.747-24.958-12.893-37.713-18.885-28.104-13.338-55.821-27.411-83.545-41.515a13742 13742 0 0 0-34.039-17.252l-5.058-2.556-20.529-10.369a16885 16885 0 0 1-57.742-29.282 9131 9131 0 0 0-46.315-23.454 3217 3217 0 0 1-24.365-12.367 2072 2072 0 0 0-22.861-11.557 649 649 0 0 1-8.31-4.25c-19.204-9.984-37.415-15.867-59.025-10.033-11.408 5.329-16.672 15.976-21.389 27.055-2.082 6.855-2.466 13.063-2.498 20.214l-.048 7.055-.017 7.707-.044 8.145c-.043 8.906-.068 17.812-.09 26.718l-.027 9.221q-.062 21.673-.09 43.346-.034 24.957-.167 49.913c-.066 12.885-.098 25.77-.105 38.655-.005 7.683-.025 15.366-.08 23.05-.06 8.587-.051 17.174-.036 25.761l-.084 7.627c.097 15.16 1.551 29.048 9.821 42.12 7.631 7.039 15.847 11.631 25.075 16.306l4.227 2.153c4.65 2.365 9.309 4.712 13.968 7.058q5.02 2.545 10.039 5.094c10.968 5.562 21.95 11.097 32.933 16.63l11.369 5.733c15.769 7.95 31.541 15.894 47.323 23.82a17979 17979 0 0 1 67.644 34.136 11173 11173 0 0 0 47.656 24.02c9.485 4.755 18.96 9.529 28.413 14.349 8.9 4.537 17.826 9.019 26.775 13.462a885 885 0 0 1 9.764 4.956c20.304 10.451 40.072 18.815 63.193 11.652 10.635-4.598 19.857-12.398 29.091-19.281 8.615-6.371 17.477-12.373 26.334-18.401 17.986-12.256 35.869-24.652 53.706-37.122 10.241-7.15 20.508-14.248 30.869-21.221l5.765-3.892q5.352-3.604 10.729-7.169l4.811-3.244 4.184-2.787c4.365-3.539 7.296-6.993 10.281-11.757.878-7.668.878-7.668-2.178-15.258-12.843-11.012-30.361-17.666-45.398-25.143q-4.189-2.095-8.376-4.193c-7.529-3.767-15.063-7.524-22.598-11.279-7.892-3.936-15.78-7.881-23.669-11.826A62176 62176 0 0 0 601.429 512a100341 100341 0 0 1-60.525-30.232c-31.75-15.866-63.509-31.714-95.267-47.565v180.923c-37.029-17.438-37.029-17.438-39.208-19.618a530 530 0 0 1-.385-19.319l-.044-6.143c-.043-6.74-.068-13.48-.09-20.22l-.027-6.957a18456 18456 0 0 1-.097-36.453 7647 7647 0 0 0-.185-37.713c-.057-9.647-.075-19.294-.083-28.942q-.016-6.952-.076-13.905c-.053-6.482-.051-12.962-.036-19.444l-.085-5.825c.072-8.351.221-12.975 4.848-20.096 4.973-2.963 4.973-2.963 10.111-2.823 6.757 2.395 12.987 5.277 19.391 8.51l4.01 2.01c4.373 2.196 8.737 4.411 13.102 6.625q4.63 2.33 9.262 4.656a12156 12156 0 0 1 24.457 12.336 27001 27001 0 0 0 43.334 21.836l4.763 2.398c20.799 10.467 41.681 20.718 62.722 30.69 26.636 12.658 52.951 25.971 79.304 39.205q10.61 5.324 21.225 10.641c27.595 13.831 27.595 13.831 37.902 19.027a839 839 0 0 0 12.751 6.233l5.828 2.806 5.059 2.389c12.438 7.278 21.167 19.437 25.455 33.083 3.564 16.965.704 32.934-8.015 47.893-9.332 13.261-20.937 21.412-34.332 30.307l-6.756 4.592a3134 3134 0 0 1-13.451 9.083c-8.243 5.544-16.412 11.192-24.582 16.843q-4.176 2.871-8.355 5.739l-4.074 2.795-8.087 5.547q-4.111 2.821-8.22 5.644a5977 5977 0 0 1-8.426 5.644a1854 1854 0 0 0-26.652 18.665l-6.632 4.695q-6.432 4.555-12.827 9.161c-19.219 13.572-38.954 25.293-62.937 25.9l-6.271.247c-19.605-2.347-37.767-12.22-55.161-21.1l-6.569-3.309a7966 7966 0 0 1-20.624-10.442 19470 19470 0 0 0-33.88-17.108A2062 2062 0 0 0 390.51 700.3c-34.829-16.548-69.371-33.685-103.897-50.854a8338 8338 0 0 0-32.146-15.909 6168 6168 0 0 1-31.569-15.644 2149 2149 0 0 0-11.893-5.865c-29.572-14.484-60.001-30.27-72.257-63.151-4.639-16.056-5.535-30.994-5.471-47.649l-.046-8.441c-.039-7.571-.036-15.142-.024-22.713.007-6.354-.006-12.707-.02-19.06-.03-15.006-.027-30.011-.002-45.017.025-15.407-.006-30.814-.064-46.221a8695 8695 0 0 1-.05-39.889c.007-7.911.002-15.822-.035-23.733-.041-8.835-.009-17.669.028-26.504l-.064-7.792c.219-25.028 5.314-48.89 22.938-67.434l4.357-4.623c16.988-16.546 34.282-22.178 57.585-22.761l4.404-.178c14.844.114 27.117 6.13 40.385 12.304l7.036 3.27a2071 2071 0 0 1 21.825 10.49l7.258 3.503a3042 3042 0 0 1 37.007 18.224l4.414 2.211 16.122 8.077 14.002 7.015 24.253 12.15q37.512 18.793 75.029 37.576 25.163 12.598 50.321 25.205 22.087 11.069 44.181 22.127 11.658 5.835 23.311 11.677a23396 23396 0 0 0 21.836 10.934q5.92 2.964 11.835 5.934l7.095 3.546 6.172 3.091c9.712 4.606 18.459 6.194 29.089 4.612 16.673-6.466 31.15-16.918 45.605-27.247q6.666-4.702 13.333-9.401l6.636-4.691c8.94-6.29 17.963-12.454 26.999-18.605a8188 8188 0 0 0 47.103-32.425l6.258-4.321c20.507-13.742 20.507-13.742 39.211-29.738 1.093-6.171 1.093-6.171 0-13.079-6.996-8.108-13.928-13.093-23.467-17.828l-7.522-3.773-8.099-3.978a6638 6638 0 0 1-8.446-4.21 5829 5829 0 0 0-22.275-11.029 6149 6149 0 0 1-17.822-8.851c-28.836-14.365-57.729-28.593-86.906-42.255-13.137-6.168-26.077-12.736-39.03-19.281-7.216-3.64-14.447-7.25-21.676-10.864l-8.781-4.394-4.365-2.184-16.47-8.24-8.314-4.158c-9.267-4.634-18.527-9.284-27.782-13.942l-7.104-3.57q-6.984-3.51-13.963-7.03l-6.5-3.262-5.792-2.916c-12.947-6.186-24.24-9.926-38.41-5.557-13.206 5.81-20.054 14.597-25.977 27.509-2.23 6.362-2.684 11.265-2.779 17.989l-.131 7.139-.076 7.631-.128 7.871c-.13 8.284-.231 16.568-.332 24.852q-.125 8.431-.255 16.864-.312 20.654-.561 41.309c-9.497-2.939-18.108-6.646-26.955-11.171l-6.994-3.559-5.259-2.708a7252 7252 0 0 1-.359-43.506q-.048-7.388-.134-14.777c-.08-7.111-.116-14.22-.145-21.331l-.102-6.594c-.006-25.152 7.379-47.393 24.224-66.395 15.662-14.838 36.401-24.15 57.926-24.778M134.271 639c8.969 3.49 17.258 7.63 25.714 12.241l3.941 2.142q4.768 2.595 9.528 5.202l.016 4.518q.191 54.435.497 108.868c.098 17.549.184 35.098.241 52.648q.074 22.946.223 45.892c.052 8.098.092 16.197.106 24.295.016 9.045.082 18.089.152 27.134l-.009 8.121c.083 17.54.083 17.54 7.481 33.187 8.297 7.485 12.514 10.881 23.809 10.881 13.974-1.838 23.698-9.392 34.966-17.41q4.263-2.99 8.528-5.976a3832 3832 0 0 0 18.903-13.363c8.986-6.376 18.038-12.65 27.126-18.879l4.344-2.979q6.466-4.43 12.934-8.854a9443 9443 0 0 0 29.949-20.579 3146 3146 0 0 1 10.51-7.202 5372 5372 0 0 0 17.772-12.206l5.661-3.845c13.028-9.02 22.29-16.97 27.535-32.334.787-6.301.787-6.301.902-12.963l.255-7.332-.068-6.907v-8.705s-.357-12.227-.187-18.497c9.798 1.702 18.265 5.084 26.989 9.929l3.941 2.172c3.183 1.756 6.357 3.531 9.528 5.308 1.148 30.481 1.616 57.929-19.311 82.431-9.343 9.306-19.917 16.755-30.756 24.201l-5.064 3.484A5833 5833 0 0 1 360.508 924c-12.854 8.721-25.61 17.576-38.349 26.463-21.911 15.267-43.855 30.479-65.985 45.427l-3.844 2.612c-19.408 13.128-35.57 19.438-59.285 16.978-19.087-3.97-33.048-13.63-45.713-28.294-9.06-14.221-13.337-26.767-13.323-43.575l-.009-8.138.024-8.907-.001-9.395c-.001-8.497.012-16.994.027-25.491.014-8.882.015-17.763.018-26.645.006-16.816.024-33.633.046-50.449.024-19.146.036-38.292.047-57.438q.036-59.074.11-118.148"/></svg>